<?xml version="1.0" encoding="UTF-8"?><svg id="logo" xmlns="http://www.w3.org/2000/svg" viewBox="0 0 79.37 79.58" width="26px"><defs><style>.f{fill:#007fff;}</style></defs><g id="a"/><g id="b"><g id="c"><g id="d"><g id="e"><path class="f" d="M31.89,.25c-7.14,.86-13.85,3.85-19.28,8.56C5.36,15.05,1.46,22.86,.25,33.59c-.25,1.86-.25,5.33-.25,24.08v21.91l2.42-.1c1.32-.06,6.65-.11,11.85-.11h9.43v-2.27c-.03-.79,0-1.58,.08-2.37,.63,.17,1.23,.42,1.8,.74,5.35,2.65,11.24,4,17.21,3.93,8.25,.12,16.29-2.64,22.74-7.79,7.45-6,11.69-13.49,13.27-23.42,.51-3.19,.57-6.18,.57-27.16V0h-23.86V2.4c.04,.78,0,1.57-.11,2.34l-1.24-.62c-4.07-2.02-8.45-3.33-12.96-3.88-3.1-.29-6.21-.29-9.31,.01Zm11.11,22.4c3.46,1.11,6.64,2.96,9.32,5.41l1.17,1.06,.46-.76c.28-.41,.74-1.16,1-1.64l.56-.87v8.3c0,7.57,0,8.45-.32,10.15-1.44,8.49-6.47,13-14.53,13-4.76,0-8.94-1.81-13.54-5.85-.38-.36-.78-.7-1.21-1-.38,.47-.71,.98-1,1.51-.29,.54-.65,1.05-1.06,1.51-.11,0-.13-3-.08-8.39,.06-7.54,.11-8.56,.4-10.14,1-5.53,3.61-9.37,7.58-11.29,2.31-1.16,4.9-1.66,7.48-1.43,1.27-.03,2.54,.12,3.77,.43Z"/></g></g></g></g></svg>